<svg width="358" height="93" viewBox="0 0 358 93" fill="none" xmlns="http://www.w3.org/2000/svg">
<g clip-path="url(#clip0_296_33)">
<path d="M38.1515 64.4728H39.1924V60.2123C39.1924 49.0348 32.339 42.1178 21.6432 42.1178C12.0861 42.1178 5.54708 46.3783 3.05302 52.0136C2.73864 52.0136 2.43125 51.7988 2.43125 51.4837C2.43125 50.9538 3.57698 49.0348 5.33749 47.2232C8.24373 44.2445 13.0223 41.2657 21.6432 41.2657C33.0656 41.2657 40.1286 48.505 40.1286 60.2123V91.4033C40.1286 91.5107 40.0238 91.6181 39.8142 91.6181C39.2972 91.6181 39.1924 91.1956 39.1924 90.2361V76.5023C37.4249 85.1235 28.9088 92.1479 17.179 92.1479C7.41937 92.1479 0.356361 87.465 0.356361 79.3737C0.356361 68.9409 9.28467 64.4728 38.1585 64.4728H38.1515ZM39.1924 65.2175H38.1515C10.0112 65.2175 1.28552 69.4779 1.28552 79.3737C1.28552 86.928 7.92936 91.2959 17.172 91.2959C29.1114 91.2959 39.1854 83.2045 39.1854 71.175V65.2175H39.1924Z" fill="white"/>
<path d="M56.5326 79.5884C56.0156 81.9299 55.5964 84.2713 55.0794 86.6128C54.2481 90.4436 53.1093 91.8256 51.1323 91.8256C50.0913 91.8256 49.1622 91.2957 49.1622 91.1883L63.5956 21.7892C63.91 19.9776 64.5317 19.3403 65.8801 19.3403H66.5018C67.7454 19.3403 68.8911 19.8702 68.5767 21.7892L62.4498 50.8463C66.8092 44.3518 73.0409 40.0985 81.3474 40.0985C92.4624 40.0985 102.012 47.975 102.012 62.4534C102.012 77.784 91.1071 92.5775 75.5279 92.5775C65.5587 92.5775 59.0127 86.5126 56.5256 79.5956L56.5326 79.5884ZM97.0313 62.4534C97.0313 51.276 89.6609 44.5738 80.8304 44.5738C71.9999 44.5738 64.6295 50.6387 60.9967 58.3075L58.817 68.3107C57.0495 77.8914 63.4908 88.1093 75.8493 88.1093C88.9344 88.1093 97.0383 75.3351 97.0383 62.4606L97.0313 62.4534Z" fill="white"/>
<path d="M113.03 88.2097V19.7701C113.03 19.4478 114.273 18.918 115.733 18.918C118.123 18.918 120.512 20.1925 120.512 25.7276V88.2097C120.512 90.9808 119.163 91.8257 117.186 91.8257H116.355C114.385 91.8257 113.03 90.9736 113.03 88.2097Z" fill="white"/>
<path d="M156.854 38.3944C171.909 38.3944 182.088 49.1423 182.088 64.3654V65.3249C181.983 67.8812 181.256 69.2631 178.56 69.2631H143.461L143.776 70.9673C145.334 77.7769 150.839 82.1448 158.314 82.1448C165.789 82.1448 170.253 78.7364 172.538 74.5905C172.643 74.3757 179.706 75.013 179.706 80.9776C179.706 83.849 177.728 86.8349 174.096 89.069C170.358 91.4104 164.958 93.0072 157.895 93.0072C141.379 93.0072 130.579 82.467 130.579 65.9693C130.579 49.4716 141.589 38.4016 156.854 38.4016V38.3944ZM156.749 48.7198C149.791 48.7198 144.6 53.8324 143.664 61.0644H168.591C168.178 53.5101 163.707 48.7198 156.749 48.7198Z" fill="white"/>
<path d="M245.236 92.1264L242.581 92.377L201.677 26.7157V91.5178H192.749V0.372344L195.641 0L236.182 65.0456V0.866415H245.229V92.1264H245.236Z" fill="#11A74B"/>
<path d="M300.971 9.40172H269.967V41.6739H297.835V50.0803H269.967V91.5035H261.038V0.866455H300.971V9.40172Z" fill="#11A74B"/>
<path d="M357.678 9.40172H336.803V91.5107H327.875V9.40172H306.882V0.866455H357.678V9.40172Z" fill="#11A74B"/>
</g>
<defs>
<clipPath id="clip0_296_33">
<rect width="357.328" height="93" fill="white" transform="translate(0.349869)"/>
</clipPath>
</defs>
</svg>
